<svg xmlns="http://www.w3.org/2000/svg" width="29.266" height="68.44" viewBox="0 0 29.266 68.44"><defs><style>.a{fill:#ff6f6f;}</style></defs><g transform="translate(0.001)"><path class="a" d="M682.269,600.175a7.017,7.017,0,1,1-7.017-7.017A7.017,7.017,0,0,1,682.269,600.175Z" transform="translate(-660.58 -593.158)"/><path class="a" d="M661.945,701.431l-3.872-9.91a7.879,7.879,0,0,0,2.714-5.946V674.217a7.918,7.918,0,0,0-7.918-7.918H641.755a7.918,7.918,0,0,0-7.918,7.918v11.359a7.879,7.879,0,0,0,2.715,5.945l-3.872,9.91H639.7V715.26a3.679,3.679,0,0,0,3.469,3.728,3.58,3.58,0,0,0,3.69-3.578V701.431h.994V715.26a3.679,3.679,0,0,0,3.47,3.728,3.579,3.579,0,0,0,3.69-3.578V701.431Zm-6.432-27.008h0a.5.5,0,0,1,.5.5v11.32l-.994-2.544V674.92A.5.5,0,0,1,655.513,674.423Zm-16.8,11.571V674.92a.5.5,0,1,1,.994,0v8.53Z" transform="translate(-632.68 -650.55)"/></g></svg>