<svg xmlns="http://www.w3.org/2000/svg" width="26.952" height="69.864" viewBox="0 0 26.952 69.864"><defs><style>.a{fill:#459edb;}</style></defs><path class="a" d="M655.742,284.141H644.628a7.919,7.919,0,0,0-7.919,7.918v11.359a7.912,7.912,0,0,0,3.926,6.837.628.628,0,0,0,.948-.538V292.762a.5.5,0,0,1,.5-.5h0a.5.5,0,0,1,.5.5V333.1a3.679,3.679,0,0,0,3.47,3.728,3.58,3.58,0,0,0,3.69-3.578V312.784a.5.5,0,0,1,.5-.5h0a.5.5,0,0,1,.5.5V333.1a3.679,3.679,0,0,0,3.469,3.728,3.58,3.58,0,0,0,3.69-3.578v-40.49a.5.5,0,0,1,.5-.5h0a.5.5,0,0,1,.5.5v16.9a.628.628,0,0,0,.954.534,7.91,7.91,0,0,0,3.823-6.775V292.059A7.918,7.918,0,0,0,655.742,284.141Z" transform="translate(-636.709 -266.967)"/><ellipse class="a" cx="7.017" cy="7.017" rx="7.017" ry="7.017" transform="translate(5.075 13.658) rotate(-76.717)"/></svg>