<svg xmlns="http://www.w3.org/2000/svg" width="17.717" height="15.001" viewBox="0 0 17.717 15.001">
	<g transform="translate(0 -0.04)">
		<path fill="#3caada" d="M15,8.584v3.389a3.077,3.077,0,0,1-3.068,3.068H3.068A2.951,2.951,0,0,1,.9,14.14,2.951,2.951,0,0,1,0,11.973V3.108A2.954,2.954,0,0,1,.9.94,2.956,2.956,0,0,1,3.068.04h8.864a2.932,2.932,0,0,1,1.245.267.324.324,0,0,1,.193.245.333.333,0,0,1-.1.309l-.522.522a.335.335,0,0,1-.245.106.36.36,0,0,1-.095-.021,1.9,1.9,0,0,0-.479-.064H3.068a1.643,1.643,0,0,0-1.2.5,1.641,1.641,0,0,0-.5,1.2v8.864a1.643,1.643,0,0,0,.5,1.2,1.642,1.642,0,0,0,1.2.5h8.864a1.709,1.709,0,0,0,1.7-1.7V9.268a.325.325,0,0,1,.1-.237l.682-.68a.332.332,0,0,1,.244-.107.278.278,0,0,1,.129.032A.307.307,0,0,1,15,8.584Zm2.461-5.209L8.789,12.047a.848.848,0,0,1-1.215,0L2.994,7.465a.848.848,0,0,1,0-1.214L4.166,5.079a.849.849,0,0,1,1.214,0l2.8,2.8L15.075.989a.85.85,0,0,1,1.215,0L17.462,2.16a.851.851,0,0,1,0,1.214Z" />
	</g>
</svg>
